<?xml version="1.0" encoding="utf-8"?>
<!-- Generator: Adobe Illustrator 23.0.3, SVG Export Plug-In . SVG Version: 6.00 Build 0)  -->
<svg version="1.1" id="图层_1" xmlns="http://www.w3.org/2000/svg" xmlns:xlink="http://www.w3.org/1999/xlink" x="0px" y="0px"
	 viewBox="0 0 823.1 201.9" style="enable-background:new 0 0 823.1 201.9;" xml:space="preserve">
<style type="text/css">
	.st0{fill:#0D6394;}
</style>
<g>
	<g transform="translate(0,38)">
		<path class="st0" d="M33,123.1c4.6,0,9-0.4,13-1.3V98.3c-2.5,0.6-4.4,0.6-6.1,0.6c-6.9,0-9.5-2.5-9.5-12.6V-38H0V93.7
			C0,113.9,7.8,123.1,33,123.1z M111.7,6.4c-8.2,0-19.1,0.6-27.8,1.7v25.9c7.8-1.5,16-2.1,24.2-2.1c20,0,24.2,5.3,24.2,18.7v2.9
			h-28.2c-30.5,0-46.7,9.5-46.7,35.8c0,23.6,13.5,34.7,38.9,34.7c18.7,0,31.3-6.9,36.2-15.4l2.9,13.3h27.3V43.2
			C162.8,19.2,149.8,6.4,111.7,6.4z M104.1,100.6c-11.8,0-16.6-3.4-16.6-12.4c0-11.6,6.1-14.1,21.2-14.1h23.6v13.3
			C128.3,95.2,118.2,100.6,104.1,100.6z M257.7,6.2c-13.5,0-26.3,3.8-33,22.5V8.3h-30.5v113.6h30.5V57.3c3.4-18.5,17.5-24,31.6-24
			h2.9L260,6.2H257.7z M326.1,6.4c-8.2,0-19.1,0.6-27.8,1.7v25.9c7.8-1.5,16-2.1,24.2-2.1c20,0,24.2,5.3,24.2,18.7v2.9h-28.2
			c-30.5,0-46.7,9.5-46.7,35.8c0,23.6,13.5,34.7,38.9,34.7c18.7,0,31.3-6.9,36.2-15.4l2.9,13.3h27.3V43.2
			C377.2,19.2,364.1,6.4,326.1,6.4z M318.5,100.6c-11.8,0-16.6-3.4-16.6-12.4c0-11.6,6.1-14.1,21.2-14.1h23.6v13.3
			C342.7,95.2,332.6,100.6,318.5,100.6z M435.2,121.9h37.2L513.9,8.3h-32.6l-26.5,81.8h-1.3L428.1,8.3h-33.9L435.2,121.9z M629.2,56
			c0-29.2-9-49.9-48.6-49.9c-35.6,0-56.2,12.8-56.2,58.9S545,124,579.7,124c19.8,0,36.8-4,43.5-8V92c-7.4,4-23.8,8-37.7,8
			c-20.2,0-29.7-7.4-30.7-23.6l73.2-4.6C628.8,68.7,629.2,62.5,629.2,56z M554.9,55.2c0.6-17.9,6.9-26.1,25.7-26.1
			c17.9,0,20.8,10.1,20.8,22.5L554.9,55.2z M686.4,123.1c4.6,0,9-0.4,13-1.3V98.3c-2.5,0.6-4.4,0.6-6.1,0.6c-6.9,0-9.5-2.5-9.5-12.6
			V-38h-30.5V93.7C653.4,113.9,661.1,123.1,686.4,123.1z M717.9,163.9c39.8,0,52-12,67.1-52.6L823.1,8.3h-32.8l-25.2,81h-1.3
			l-26.7-81h-33.9l44.2,112.5c-3.4,11.6-10.3,16.8-29.4,16.8V163.9z"/>
	</g>
</g>
</svg>
