<?xml version="1.0" encoding="utf-8"?>
<!-- Generator: Adobe Illustrator 23.1.0, SVG Export Plug-In . SVG Version: 6.00 Build 0)  -->
<svg version="1.1" id="图层_1" xmlns="http://www.w3.org/2000/svg" xmlns:xlink="http://www.w3.org/1999/xlink" x="0px" y="0px"
	 width="450px" height="180px" viewBox="0 0 450 180" enable-background="new 0 0 450 180" xml:space="preserve">
<polygon fill="#43B07E" points="103.37,112.2 62.54,88.62 62.54,41.47 56.62,41.47 56.62,88.62 15.79,112.2 18.75,117.32 
	59.58,93.75 100.42,117.32 "/>
<g>
	<g>
		<path fill="#FFFFFF" d="M59.58,140.42c-2.44,0-4.87-0.63-7.05-1.88l-31.18-18c-4.35-2.51-7.05-7.19-7.05-12.21v-36
			c0-5.02,2.7-9.69,7.05-12.21l31.18-18c4.35-2.51,9.75-2.51,14.09,0l31.18,18c4.35,2.51,7.05,7.19,7.05,12.21v36
			c0,5.02-2.7,9.69-7.05,12.21l-31.18,18C64.45,139.79,62.02,140.42,59.58,140.42z M59.58,46.15c-1.41,0-2.83,0.36-4.09,1.09
			l-31.18,18c-2.52,1.45-4.09,4.17-4.09,7.08v36c0,2.91,1.57,5.62,4.09,7.08l31.18,18c2.52,1.46,5.65,1.46,8.17,0l31.18-18
			c2.52-1.45,4.09-4.17,4.09-7.08v-36c0-2.91-1.57-5.62-4.09-7.08l-31.18-18C62.41,46.52,60.99,46.15,59.58,46.15z"/>
	</g>
</g>
<path fill="#FFFFFF" d="M110.28,50.39L68.82,26.46c-5.7-3.29-12.78-3.29-18.47,0L8.89,50.39c-5.7,3.29-9.24,9.42-9.24,16v47.87
	c0,6.58,3.54,12.71,9.24,16l41.46,23.94c2.85,1.64,6.04,2.47,9.24,2.47s6.39-0.82,9.24-2.47l41.46-23.94c5.7-3.29,9.24-9.42,9.24-16
	V66.39C119.51,59.82,115.97,53.68,110.28,50.39z M113.59,114.26c0,4.47-2.41,8.64-6.28,10.87l-41.46,23.94
	c-1.05,0.61-2.17,1.03-3.32,1.31v-11.2h-5.92v11.2c-1.15-0.28-2.27-0.7-3.32-1.31l-41.46-23.94c-3.87-2.24-6.28-6.4-6.28-10.87
	V66.39c0-1.21,0.19-2.39,0.52-3.53l9.69,5.6l2.96-5.13l-9.69-5.6c0.81-0.86,1.74-1.61,2.79-2.22L53.3,31.58
	c1.94-1.12,4.11-1.68,6.28-1.68c2.17,0,4.34,0.56,6.28,1.68l41.46,23.93c1.05,0.61,1.98,1.36,2.79,2.22l-9.69,5.6l2.96,5.13
	l9.69-5.6c0.33,1.13,0.52,2.32,0.52,3.53V114.26z"/>
<path fill="#43B07E" d="M195.36,101.03c0,4.5-1.86,8.2-5.59,11.1c-3.79,2.9-9.26,4.35-16.42,4.35h-15.71
	c-2.49,0-3.73-1.24-3.73-3.73V64.37c0-2.49,1.24-3.73,3.73-3.73h19.62c4.67,0,8.4,1.1,11.19,3.28c3.25,2.66,4.88,6.19,4.88,10.56
	c0,6.33-2.96,10.68-8.88,13.05c3.37,0.89,5.83,2.28,7.37,4.17C194.17,94.55,195.36,97.66,195.36,101.03z M187.01,74.49
	c0-2.54-0.95-4.56-2.84-6.04c-1.24-1.01-2.99-1.51-5.24-1.51h-17.22c-0.95,0-1.42,0.48-1.42,1.42v16.07h13.94
	c3.43,0,6.33-0.77,8.7-2.31C185.65,80.29,187.01,77.74,187.01,74.49z M189.06,100.85c0-2.72-1.27-5.12-3.82-7.19
	c-2.43-1.89-6.1-2.84-11.01-2.84h-13.94v18.02c0,0.89,0.47,1.33,1.42,1.33h14.11c3.55,0,6.48-0.71,8.79-2.13
	C187.58,106.27,189.06,103.87,189.06,100.85z"/>
<path fill="#43B07E" d="M251.46,96.06c0,6.69-2.13,11.95-6.39,15.8c-4.32,3.91-10.06,5.86-17.22,5.86c-7.63,0-13.49-1.89-17.58-5.68
	c-4.03-3.79-6.04-9.11-6.04-15.98V63.12c0-2.43,1.03-3.64,3.11-3.64c2.13,0,3.2,1.21,3.2,3.64v32.49c0,10.54,5.77,15.8,17.31,15.8
	c4.73,0,8.61-1.15,11.63-3.46c3.73-2.78,5.59-6.89,5.59-12.34V63.12c0-2.43,1.06-3.64,3.2-3.64c2.13,0,3.19,1.21,3.19,3.64V96.06z"
	/>
<path fill="#43B07E" d="M309.07,88.51c0,5.62-1.24,10.68-3.73,15.18c-2.66,4.74-6.48,8.23-11.45,10.47
	c-3.43,1.54-7.04,2.31-10.83,2.31h-16.78c-2.78,0-4.17-1.24-4.17-3.73V64.28c0-2.49,1.39-3.73,4.17-3.73h16.78
	C300.4,60.55,309.07,69.87,309.07,88.51z M302.32,88.51c0-14.44-6.42-21.66-19.26-21.66h-13.32c-0.89,0-1.33,0.47-1.33,1.42v40.57
	c0,0.89,0.44,1.33,1.33,1.33h13.32c2.9,0,5.77-0.8,8.61-2.4C298.77,103.93,302.32,97.51,302.32,88.51z"/>
<path fill="#FFFFFF" d="M396.83,62.32c0,0.48-0.12,1.07-0.36,1.78l-15.36,51.22c-0.53,1.66-1.48,2.49-2.84,2.49
	c-1.42,0-2.4-0.83-2.93-2.49l-13.23-42.61l-13.14,42.61c-0.47,1.66-1.42,2.49-2.84,2.49s-2.37-0.83-2.84-2.49L327.59,64.1
	c-0.24-0.71-0.35-1.3-0.35-1.78c0-1.89,1.01-2.84,3.02-2.84c1.42,0,2.34,0.74,2.75,2.22l13.14,43.05l13.05-43.05
	c0.47-1.48,1.42-2.22,2.84-2.22c1.42,0,2.37,0.74,2.84,2.22l13.4,43.05l12.69-43.05c0.41-1.48,1.36-2.22,2.84-2.22
	C395.83,59.48,396.83,60.43,396.83,62.32z"/>
<path fill="#FFFFFF" d="M449.65,114.26c0,0.95-0.33,1.75-0.98,2.4c-0.65,0.71-1.45,1.06-2.4,1.06c-0.65,0-1.51-0.41-2.57-1.24
	l-34-27.61v25.12c0,2.49-1.04,3.73-3.11,3.73c-2.07,0-3.11-1.24-3.11-3.73V62.95c0-2.43,1.04-3.64,3.11-3.64
	c2.07,0,3.11,1.21,3.11,3.64v20.06l31.87-22.73c0.89-0.65,1.66-0.98,2.31-0.98c2.25,0,3.37,1.07,3.37,3.2c0,0.89-0.5,1.69-1.51,2.4
	L416.1,85.14c-0.12,0.12-0.27,0.33-0.44,0.62c0,0.18,0.18,0.38,0.53,0.62l32.05,25.21C449.18,112.36,449.65,113.25,449.65,114.26z"
	/>
</svg>
