<?xml version="1.0" standalone="no"?><!DOCTYPE svg PUBLIC "-//W3C//DTD SVG 1.1//EN" "http://www.w3.org/Graphics/SVG/1.1/DTD/svg11.dtd"><svg viewBox="0 0 1024 1024" xmlns="http://www.w3.org/2000/svg"><path fill="currentColor" d="m160 96.064 192 .192a32 32 0 0 1 0 64l-192-.192V352a32 32 0 0 1-64 0V96h64v.064zm0 831.872V928H96V672a32 32 0 1 1 64 0v191.936l192-.192a32 32 0 1 1 0 64l-192 .192zM864 96.064V96h64v256a32 32 0 1 1-64 0V160.064l-192 .192a32 32 0 1 1 0-64l192-.192zm0 831.872-192-.192a32 32 0 0 1 0-64l192 .192V672a32 32 0 1 1 64 0v256h-64v-.064z"></path></svg>