<svg xmlns="http://www.w3.org/2000/svg"  viewBox="0 0 48 48" width="48px" height="48px"><path fill="#38b47b" d="M4.128,26.901c0.598-4.735,0.75-8.99,0.34-14.094c-0.16-1.985,0.011-4.217,1.329-5.705 C6.683,6.101,8.034,5.67,9.335,5.375c8.125-1.842,16.593-0.044,24.917-0.349c1.936-0.071,4.031-0.216,5.645,0.861 c1.674,1.116,2.347,3.233,2.728,5.215c0.9,4.684,0.817,9.495,0.731,14.265c-0.069,3.82-0.139,7.639-0.208,11.459 c-0.036,1.993-0.179,4.231-1.664,5.553c-1.315,1.171-4.183,1.637-5.94,1.622c-8.81-0.076-16.683-0.572-25.493-0.649 c-0.719-0.006-1.456-0.015-2.131-0.264c-1.422-0.523-2.277-1.984-2.78-3.419c-1.171-3.336-1.062-6.97-0.938-10.505 C4.22,28.608,4.058,27.452,4.128,26.901z"/><path fill="#c56528" d="M21.152,30.998c-0.131,0.711-0.242,1.517,0.193,2.095c0.155,0.206,0.372,0.368,0.484,0.601 c0.076,0.158,0.1,0.341,0.204,0.482c0.128,0.174,0.35,0.248,0.557,0.31c0.729,0.218,1.511,0.421,2.241,0.205 c0.605-0.179,1.101-0.633,1.446-1.162c0.345-0.529,0.555-1.132,0.747-1.733c0.133-0.418,0.191-1.15,0.589-1.334L21.152,30.998z"/><path fill="#cbdb2d" d="M4.859,17.283c0.964-0.282,2.015-1.348,2.24-2.327c0.225-0.979,0.335-2.048,0.989-2.811 c0.08-0.093,0.172-0.183,0.29-0.216c0.22-0.061,0.436,0.093,0.613,0.238c0.466,0.383,0.931,0.766,1.397,1.148 c0.431-1.082,0.223-2.519,1.155-3.218c0.469-0.351,1.119-0.389,1.679-0.217c0.56,0.173,1.044,0.53,1.483,0.918 c1.565,1.381,2.688,3.184,4.069,4.748c0.292,0.331,0.606,0.658,1.005,0.847c0.347,0.164,1.939,0.969,3.98,0.969 c1.744,0,3.492-0.901,4.943-1.868c1.809-1.205,3.064-3.062,4.638-4.562c0.406-0.387,0.846-0.758,1.369-0.959 s1.149-0.21,1.617,0.099c0.524,0.347,0.742,0.996,0.926,1.598c0.135,0.442,0.27,0.884,0.404,1.327 c0.254-0.111,0.249-0.463,0.349-0.721c0.193-0.498,0.876-0.658,1.362-0.438s0.798,0.707,1.003,1.2 c0.205,0.493,0.335,1.02,0.602,1.483c0.688,1.196,2.258,1.954,2.315,3.333l-0.014,12.079c0,0-3.957,4.891-8.974,4.385 c-5.016-0.506-7.886-4.406-8.505-5.26c-0.62-0.855-3.783,0-3.783,0s-2.39,6.716-8.809,6.273S4.152,27.746,4,27.438 s0.402-1.775,0.402-1.775L4.859,17.283z"/><path fill="#010101" d="M43.287,18.357c-0.267,0-0.488-0.21-0.5-0.479c-0.027-0.658-0.537-1.169-1.128-1.763 c-0.405-0.407-0.825-0.828-1.121-1.342c-0.195-0.339-0.32-0.692-0.44-1.035c-0.061-0.17-0.12-0.34-0.189-0.506 c-0.203-0.489-0.455-0.804-0.748-0.937c-0.147-0.068-0.344-0.069-0.499-0.007c-0.067,0.028-0.155,0.08-0.19,0.17 c-0.021,0.054-0.034,0.114-0.049,0.175c-0.06,0.241-0.158,0.645-0.564,0.823c-0.133,0.057-0.282,0.056-0.409-0.003 c-0.13-0.06-0.229-0.171-0.27-0.308l-0.406-1.328c-0.17-0.559-0.353-1.081-0.723-1.326c-0.295-0.194-0.739-0.212-1.161-0.049 c-0.453,0.174-0.847,0.513-1.204,0.854c-0.552,0.526-1.079,1.114-1.589,1.683c-0.937,1.045-1.906,2.127-3.117,2.933 c-1.972,1.313-3.68,1.952-5.221,1.952c-1.373,0-2.768-0.334-4.146-0.994c-0.539-0.255-0.907-0.645-1.214-0.991 c-0.517-0.584-1.001-1.206-1.469-1.806c-0.822-1.057-1.6-2.055-2.558-2.899c-0.335-0.297-0.786-0.657-1.299-0.815 c-0.455-0.14-0.929-0.088-1.231,0.139c-0.44,0.33-0.545,0.946-0.665,1.66c-0.075,0.446-0.152,0.908-0.325,1.342 c-0.06,0.148-0.186,0.259-0.34,0.299c-0.152,0.039-0.318,0.004-0.442-0.098l-1.397-1.148c-0.139-0.114-0.191-0.135-0.208-0.139 c-0.449,0.583-0.601,1.324-0.762,2.108c-0.038,0.183-0.075,0.365-0.116,0.545c-0.263,1.146-1.424,2.355-2.587,2.695 c-0.27,0.076-0.543-0.076-0.62-0.34c-0.078-0.265,0.074-0.542,0.339-0.62c0.811-0.236,1.713-1.17,1.894-1.959 c0.039-0.172,0.075-0.347,0.111-0.522c0.179-0.875,0.364-1.779,0.985-2.503c0.106-0.125,0.278-0.3,0.534-0.371 c0.493-0.137,0.894,0.192,1.065,0.333l0.804,0.661c0.028-0.146,0.054-0.296,0.079-0.45c0.137-0.809,0.291-1.725,1.052-2.295 c0.561-0.42,1.355-0.531,2.126-0.294c0.695,0.214,1.256,0.659,1.666,1.021c1.027,0.906,1.87,1.987,2.685,3.034 c0.459,0.588,0.933,1.197,1.429,1.758c0.251,0.285,0.524,0.575,0.845,0.727c1.294,0.62,2.544,0.921,3.766,0.921 c1.338,0,2.864-0.583,4.666-1.784c1.105-0.736,1.99-1.724,2.928-2.769c0.522-0.583,1.063-1.186,1.644-1.739 c0.412-0.392,0.916-0.826,1.534-1.063c0.729-0.28,1.506-0.226,2.072,0.149c0.701,0.464,0.958,1.31,1.128,1.87l0.055,0.178 c0.134-0.145,0.303-0.262,0.5-0.342c0.409-0.167,0.893-0.158,1.29,0.022c0.53,0.241,0.953,0.733,1.258,1.463 c0.076,0.183,0.142,0.37,0.208,0.557c0.111,0.313,0.216,0.609,0.365,0.869c0.23,0.401,0.586,0.758,0.963,1.136 c0.676,0.679,1.375,1.38,1.419,2.426c0.011,0.276-0.203,0.509-0.479,0.521C43.301,18.357,43.294,18.357,43.287,18.357z"/><path fill="#febf10" d="M19.754,30.169c0.12-0.97,0.585-1.903,1.325-2.568c0.74-0.665,1.755-1.049,2.765-1.005 c0.676,0.029,1.33,0.242,1.946,0.512c1.253,0.551,2.494,1.532,2.581,2.858c0.007,0.098,0.003,0.207-0.063,0.282 c-0.062,0.071-0.164,0.095-0.258,0.115c-1.279,0.271-2.531,0.662-3.732,1.167C23.085,31.047,21.056,30.44,19.754,30.169z"/><path fill="#010101" d="M13.632,35.852c-1.727,0-3.442-0.526-4.91-1.534c-2.064-1.418-3.96-3.94-4.955-5.668 c-0.138-0.239-0.055-0.545,0.185-0.683c0.236-0.138,0.543-0.057,0.683,0.184c1.241,2.157,3.068,4.254,4.654,5.343 c1.792,1.23,4.096,1.654,6.164,1.132c2.075-0.523,3.97-2.01,5.069-3.978c0.136-0.241,0.44-0.327,0.681-0.192 c0.241,0.135,0.327,0.439,0.192,0.681c-1.25,2.236-3.326,3.861-5.698,4.459C15.017,35.767,14.323,35.852,13.632,35.852z"/><path fill="#010101" d="M34.818,34.835c-2.802,0-5.364-1.034-7.021-2.874c-0.347-0.384-0.529-0.623-0.842-1.034 c-0.167-0.22-0.124-0.533,0.096-0.7c0.221-0.167,0.534-0.125,0.701,0.096c0.293,0.385,0.464,0.609,0.788,0.97 c1.683,1.87,4.445,2.794,7.406,2.482c2.721-0.292,5.56-2.133,6.902-4.478c0.136-0.241,0.443-0.323,0.682-0.186 c0.24,0.137,0.323,0.443,0.186,0.683c-1.516,2.647-4.595,4.646-7.663,4.975C35.638,34.813,35.226,34.835,34.818,34.835z"/><path fill="#010101" d="M24.319,32.03c-0.062,0-0.124-0.011-0.183-0.035c-1.208-0.473-3.22-1.073-4.484-1.337 c-0.254-0.053-0.426-0.292-0.394-0.55c0.136-1.102,0.678-2.151,1.487-2.879c0.855-0.769,1.995-1.179,3.12-1.132 c0.657,0.029,1.332,0.205,2.125,0.555c1.743,0.766,2.792,1.962,2.88,3.282c0.007,0.114,0.024,0.407-0.188,0.646 c-0.169,0.196-0.403,0.246-0.528,0.272c-1.247,0.264-2.472,0.647-3.643,1.139C24.451,32.017,24.386,32.03,24.319,32.03z M20.334,29.786c1.236,0.292,2.853,0.78,3.979,1.206c1.144-0.468,2.335-0.837,3.546-1.098c-0.191-1.317-1.774-2.109-2.27-2.327 c-0.677-0.298-1.237-0.447-1.767-0.471c-0.856-0.037-1.756,0.291-2.408,0.877C20.891,28.443,20.511,29.087,20.334,29.786z"/><path fill="#010101" d="M24.16,35.283c-0.582,0-1.159-0.153-1.713-0.318c-0.219-0.066-0.584-0.175-0.817-0.493 c-0.109-0.149-0.16-0.303-0.201-0.427c-0.016-0.045-0.029-0.091-0.05-0.134c-0.036-0.076-0.118-0.163-0.204-0.254 c-0.08-0.085-0.16-0.171-0.229-0.264c-0.551-0.73-0.436-1.666-0.285-2.485c0.05-0.272,0.308-0.455,0.583-0.401 c0.271,0.05,0.451,0.311,0.401,0.582c-0.118,0.639-0.207,1.296,0.101,1.704c0.048,0.064,0.104,0.122,0.157,0.18 c0.129,0.137,0.274,0.292,0.378,0.506c0.038,0.08,0.068,0.166,0.097,0.252c0.019,0.054,0.043,0.128,0.06,0.15 c0.035,0.048,0.227,0.105,0.298,0.127c0.693,0.207,1.363,0.379,1.955,0.204c0.436-0.129,0.851-0.468,1.169-0.956 c0.314-0.482,0.514-1.061,0.689-1.612c0.028-0.088,0.053-0.194,0.078-0.305c0.106-0.459,0.253-1.087,0.775-1.331 c0.251-0.114,0.549-0.008,0.664,0.243c0.116,0.25,0.008,0.548-0.242,0.664c-0.088,0.067-0.179,0.46-0.223,0.649 c-0.033,0.139-0.064,0.271-0.1,0.383c-0.197,0.617-0.422,1.268-0.805,1.855c-0.448,0.687-1.061,1.172-1.724,1.368 C24.702,35.25,24.431,35.283,24.16,35.283z"/><path fill="#d6e5e5" d="M28.751,22.401c0.275,1.874-0.104,3.785,0.475,5.59c0.671,2.091,2.874,3.547,5.089,3.506 c2.215-0.041,4.301-1.489,5.239-3.476c0.728-1.541,0.805-3.296,0.799-4.997c-0.004-1.13-0.04-2.262-0.201-3.381 c-0.065-0.454-0.153-0.911-0.358-1.322c-0.428-0.857-1.328-1.409-2.264-1.647c-0.936-0.238-1.917-0.204-2.882-0.164 c-0.792,0.033-1.595,0.072-2.352,0.305C29.985,17.528,28.403,20.03,28.751,22.401z"/><path fill="#d6e5e5" d="M7.817,24.943c-0.015-0.88-0.071-2.465,0.025-3.34c0.064-0.585,0.186-1.167,0.403-1.716 c0.751-1.907,2.7-3.289,4.769-3.398s4.149,1.056,5.13,2.858c0.732,1.347,0.86,2.923,0.974,4.447c0.088,1.184,0.172,2.4-0.181,3.535 c-0.379,1.216-1.252,2.254-2.33,2.951c-1.078,0.697-2.351,1.069-3.634,1.192c-0.302,0.029-0.61,0.044-0.908-0.015 c-0.874-0.174-1.484-0.935-2.007-1.649C8.888,28.211,7.852,26.914,7.817,24.943z"/><path fill="#010101" d="M34.22,31.999c-2.46,0-4.749-1.607-5.47-3.855c-0.367-1.145-0.373-2.317-0.379-3.45 c-0.004-0.734-0.008-1.494-0.115-2.22l0,0c-0.382-2.605,1.364-5.357,3.893-6.135c0.841-0.258,1.711-0.294,2.479-0.327 c0.933-0.039,1.994-0.084,3.025,0.179c1.19,0.302,2.134,0.998,2.588,1.908c0.239,0.478,0.336,0.991,0.406,1.474 c0.175,1.22,0.201,2.429,0.205,3.45c0.007,1.642-0.053,3.534-0.847,5.213c-1.041,2.206-3.324,3.718-5.683,3.762 C34.289,31.998,34.254,31.999,34.22,31.999z M29.246,22.328c0.116,0.795,0.121,1.591,0.125,2.36 c0.006,1.106,0.011,2.151,0.332,3.15c0.581,1.814,2.514,3.16,4.52,3.16c0.027,0,0.055,0,0.083-0.001 c1.985-0.037,3.913-1.318,4.796-3.189c0.705-1.491,0.757-3.25,0.751-4.782c-0.003-0.988-0.029-2.153-0.195-3.312 c-0.058-0.399-0.135-0.817-0.311-1.169c-0.324-0.65-1.031-1.155-1.939-1.386c-0.894-0.228-1.875-0.185-2.737-0.148 c-0.708,0.03-1.51,0.063-2.228,0.284C30.366,17.933,28.933,20.191,29.246,22.328L29.246,22.328z"/><path fill="#373837" d="M32.558,20.449c0.416-0.036,0.777,0.353,0.844,0.795c0.106,0.701-0.433,1.435-1.092,1.487 c-0.155,0.012-0.316-0.007-0.462,0.049c-0.324,0.125-0.436,0.551-0.474,0.918c-0.082,0.803-0.028,1.622,0.161,2.404 c0.092,0.383,0.218,0.76,0.418,1.092c0.457,0.757,1.312,1.216,2.151,1.154s1.627-0.642,1.983-1.46 c0.242-0.557,0.289-1.186,0.307-1.8c0.032-1.118-0.03-2.272-0.474-3.284c-0.444-1.011-1.345-1.855-2.385-1.904 C33.13,19.882,32.651,20.026,32.558,20.449z"/><path fill="#373837" d="M12.893,20.501c0.591,0.262,0.722,1.172,0.563,1.804c-0.158,0.631-0.729,1.116-1.364,1.239 c-0.103,0.02-0.214,0.034-0.297,0.099c-0.116,0.09-0.146,0.251-0.164,0.398c-0.099,0.797-0.095,1.622,0.153,2.386 s0.762,1.463,1.483,1.805c0.721,0.342,1.652,0.269,2.235-0.279c0.254-0.238,0.431-0.549,0.561-0.873 c0.326-0.816,0.361-1.717,0.371-2.597c0.007-0.611,0.002-1.233-0.169-1.819C15.864,21.296,14.305,20.46,12.893,20.501z"/><path fill="#010101" d="M33.949,28.855c-0.966,0-1.901-0.536-2.424-1.402c-0.204-0.337-0.355-0.729-0.477-1.233 c-0.202-0.841-0.261-1.707-0.172-2.571c0.073-0.711,0.339-1.16,0.79-1.334c0.187-0.072,0.358-0.075,0.496-0.078l0.107-0.004 c0.158-0.013,0.322-0.111,0.449-0.271c0.15-0.189,0.221-0.43,0.188-0.643c-0.033-0.218-0.156-0.382-0.307-0.373 c-0.156,0.015-0.313-0.048-0.419-0.168c-0.104-0.12-0.146-0.282-0.112-0.437c0.131-0.599,0.751-0.965,1.488-0.94 c1.148,0.055,2.255,0.919,2.819,2.203c0.511,1.164,0.544,2.481,0.516,3.499c-0.02,0.66-0.074,1.356-0.349,1.985 c-0.433,0.993-1.376,1.683-2.404,1.759C34.076,28.853,34.013,28.855,33.949,28.855z M33.552,20.403 c0.176,0.206,0.3,0.469,0.345,0.766c0.074,0.49-0.068,1.005-0.394,1.414c-0.298,0.376-0.719,0.612-1.154,0.647l-0.167,0.007 c-0.052,0.001-0.132,0.002-0.155,0.011c-0.017,0.006-0.115,0.122-0.155,0.503c-0.076,0.751-0.026,1.503,0.15,2.235 c0.096,0.401,0.21,0.703,0.359,0.95c0.359,0.595,1.039,0.968,1.686,0.914c0.652-0.048,1.28-0.515,1.563-1.161 c0.216-0.497,0.25-1.094,0.265-1.614c0.025-0.913,0-2.087-0.432-3.068C35.129,21.249,34.412,20.467,33.552,20.403z"/><path fill="#010101" d="M12.517,31.999c-0.179,0-0.363-0.013-0.55-0.05c-1.041-0.208-1.739-1.061-2.313-1.844l-0.193-0.263 c-1.131-1.54-2.108-2.869-2.144-4.89l-0.009-0.438c-0.021-0.924-0.048-2.189,0.036-2.965c0.074-0.688,0.217-1.292,0.435-1.845 c0.828-2.102,2.922-3.594,5.208-3.714c2.257-0.109,4.516,1.134,5.596,3.119c0.796,1.464,0.922,3.156,1.033,4.649 c0.086,1.163,0.184,2.481-0.202,3.721c-0.398,1.277-1.299,2.421-2.536,3.222c-1.069,0.692-2.403,1.131-3.857,1.27 C12.858,31.986,12.689,31.999,12.517,31.999z M13.276,16.982c-0.079,0-0.158,0.002-0.236,0.006 c-1.873,0.098-3.653,1.365-4.331,3.082c-0.184,0.468-0.306,0.987-0.37,1.586c-0.077,0.711-0.05,1.939-0.03,2.835l0.009,0.442l0,0 c0.029,1.703,0.877,2.856,1.95,4.315l0.193,0.264c0.483,0.661,1.013,1.317,1.701,1.454c0.238,0.047,0.508,0.031,0.763,0.008 c1.296-0.124,2.475-0.509,3.41-1.115c1.041-0.673,1.796-1.625,2.124-2.68c0.33-1.058,0.243-2.223,0.159-3.349 c-0.104-1.392-0.221-2.97-0.914-4.246C16.856,18.028,15.062,16.982,13.276,16.982z"/><path fill="#010101" d="M14.19,28.938c-0.385,0-0.776-0.083-1.137-0.254c-0.8-0.379-1.436-1.146-1.745-2.103 c-0.241-0.743-0.299-1.594-0.174-2.601c0.02-0.152,0.063-0.504,0.352-0.73c0.17-0.133,0.355-0.167,0.478-0.19 c0.5-0.097,0.901-0.455,1.008-0.876c0.114-0.457,0.016-1.092-0.282-1.225c-0.213-0.095-0.333-0.325-0.287-0.554 c0.045-0.229,0.242-0.396,0.476-0.403c1.474-0.042,3.369,0.824,3.865,2.521c0.188,0.64,0.197,1.295,0.189,1.965 c-0.01,0.917-0.05,1.887-0.406,2.777c-0.177,0.442-0.4,0.786-0.682,1.051C15.411,28.724,14.809,28.938,14.19,28.938z M12.135,24.045c-0.002,0.016-0.005,0.035-0.008,0.058c-0.106,0.857-0.063,1.566,0.133,2.168c0.226,0.697,0.671,1.246,1.222,1.508 c0.567,0.268,1.273,0.188,1.678-0.192c0.172-0.161,0.319-0.395,0.439-0.694c0.292-0.731,0.324-1.56,0.334-2.417 c0.007-0.614,0-1.164-0.148-1.673c-0.242-0.828-1.008-1.403-1.84-1.657c0.105,0.415,0.099,0.875-0.003,1.28 c-0.201,0.798-0.906,1.444-1.755,1.608C12.187,24.035,12.162,24.04,12.135,24.045z"/><path fill="#010101" d="M35.621,44.5c-0.027,0-0.055,0-0.081,0c-4.409-0.039-8.651-0.184-12.753-0.325 c-4.101-0.14-8.34-0.286-12.74-0.324c-0.72-0.006-1.534-0.014-2.3-0.295c-1.352-0.497-2.388-1.75-3.079-3.723 c-1.22-3.472-1.085-7.305-0.967-10.688c0.008-0.222-0.017-0.547-0.04-0.886c-0.037-0.519-0.075-1.055-0.029-1.421l0,0 c0.626-4.959,0.728-9.144,0.338-13.992C3.752,10.149,4.24,8.104,5.422,6.771c0.996-1.125,2.481-1.583,3.803-1.883 c5.214-1.183,10.63-0.882,15.87-0.59c3.003,0.167,6.109,0.339,9.139,0.229l0.308-0.012c1.861-0.074,3.97-0.154,5.634,0.956 c1.908,1.272,2.574,3.628,2.941,5.538c0.914,4.757,0.825,9.643,0.739,14.368l-0.208,11.458c-0.038,2.108-0.215,4.478-1.832,5.917 C40.367,44.041,37.353,44.5,35.621,44.5z M4.624,26.964c-0.034,0.269,0.002,0.776,0.034,1.225c0.027,0.38,0.052,0.744,0.043,0.993 c-0.116,3.294-0.247,7.028,0.91,10.322c0.404,1.154,1.163,2.63,2.481,3.115c0.602,0.221,1.294,0.228,1.963,0.233 c4.413,0.038,8.659,0.184,12.766,0.325c4.096,0.14,8.331,0.286,12.727,0.324c1.908,0.042,4.487-0.502,5.604-1.496 c1.315-1.171,1.46-3.205,1.496-5.188l0.208-11.458c0.085-4.673,0.173-9.506-0.722-14.161c-0.33-1.718-0.914-3.827-2.514-4.894 c-1.395-0.93-3.248-0.856-5.041-0.789l-0.309,0.012c-3.077,0.113-6.205-0.061-9.231-0.23C19.87,5.008,14.525,4.711,9.445,5.863 C8.279,6.127,6.979,6.521,6.17,7.434c-0.993,1.123-1.398,2.917-1.204,5.333C5.361,17.687,5.259,21.933,4.624,26.964L4.624,26.964z"/></svg>